<mxfile host="app.diagrams.net" modified="2023-11-27T10:04:16.691Z" agent="Mozilla/5.0 (Macintosh; Intel Mac OS X 10_15_7) AppleWebKit/537.36 (KHTML, like Gecko) Chrome/119.0.0.0 Safari/537.36" etag="i96GhTIPwsKk99pkDMbY" version="22.1.4" type="device">
  <diagram name="Page-1" id="Ta1zVw3n3Kg4nTh30yuE">
    <mxGraphModel dx="1499" dy="1003" grid="1" gridSize="10" guides="1" tooltips="1" connect="1" arrows="1" fold="1" page="1" pageScale="1" pageWidth="850" pageHeight="1100" math="0" shadow="0">
      <root>
        <mxCell id="0" />
        <mxCell id="1" parent="0" />
        <mxCell id="qedzuLV1WojchfPEjpT0-9" value="" style="group" parent="1" vertex="1" connectable="0">
          <mxGeometry x="369.9989838486224" y="39.99847577293368" width="294.6410161513776" height="481.9615242270663" as="geometry" />
        </mxCell>
        <mxCell id="qedzuLV1WojchfPEjpT0-10" value="" style="shape=flexArrow;endArrow=none;startArrow=none;html=1;rounded=0;exitX=1;exitY=0.5;exitDx=0;exitDy=0;fillColor=#dae8fc;strokeColor=#6c8ebf;startFill=0;endFill=0;" parent="qedzuLV1WojchfPEjpT0-9" source="qedzuLV1WojchfPEjpT0-11" edge="1">
          <mxGeometry width="100" height="100" relative="1" as="geometry">
            <mxPoint x="284.6410161513776" y="321.9615242270663" as="sourcePoint" />
            <mxPoint x="294.6410161513776" y="481.9615242270663" as="targetPoint" />
          </mxGeometry>
        </mxCell>
        <mxCell id="qedzuLV1WojchfPEjpT0-11" value="E-gun" style="rounded=0;whiteSpace=wrap;html=1;fillColor=#dae8fc;strokeColor=#6c8ebf;rotation=60;" parent="qedzuLV1WojchfPEjpT0-9" vertex="1">
          <mxGeometry x="4.641016151377556" y="31.96152422706632" width="120" height="80" as="geometry" />
        </mxCell>
        <mxCell id="qedzuLV1WojchfPEjpT0-12" value="Buncher" style="rounded=0;whiteSpace=wrap;html=1;fillColor=#dae8fc;strokeColor=#6c8ebf;rotation=60;" parent="qedzuLV1WojchfPEjpT0-9" vertex="1">
          <mxGeometry x="83.14101615137756" y="147.96152422706632" width="90" height="80" as="geometry" />
        </mxCell>
        <mxCell id="qedzuLV1WojchfPEjpT0-13" value="ACC&#39;1" style="rounded=0;whiteSpace=wrap;html=1;fillColor=#dae8fc;strokeColor=#6c8ebf;rotation=60;" parent="qedzuLV1WojchfPEjpT0-9" vertex="1">
          <mxGeometry x="136.64101615137756" y="241.96152422706632" width="90" height="80" as="geometry" />
        </mxCell>
        <mxCell id="qedzuLV1WojchfPEjpT0-14" value="ACC&#39;2" style="rounded=0;whiteSpace=wrap;html=1;fillColor=#dae8fc;strokeColor=#6c8ebf;rotation=60;" parent="qedzuLV1WojchfPEjpT0-9" vertex="1">
          <mxGeometry x="187.64101615137756" y="334.9615242270663" width="90" height="80" as="geometry" />
        </mxCell>
        <mxCell id="qedzuLV1WojchfPEjpT0-25" value="ACC&#39;1" style="rounded=0;whiteSpace=wrap;html=1;fillColor=#dae8fc;strokeColor=#6c8ebf;rotation=60;" parent="qedzuLV1WojchfPEjpT0-9" vertex="1">
          <mxGeometry x="136.64101615137758" y="240.0015242270663" width="90" height="80" as="geometry" />
        </mxCell>
        <mxCell id="qedzuLV1WojchfPEjpT0-26" value="" style="endArrow=classic;html=1;rounded=0;entryX=0.5;entryY=0;entryDx=0;entryDy=0;fillColor=#d5e8d4;strokeColor=#82b366;strokeWidth=2;" parent="qedzuLV1WojchfPEjpT0-9" edge="1">
          <mxGeometry width="50" height="50" relative="1" as="geometry">
            <mxPoint x="187.64101615137758" y="50.00152422706632" as="sourcePoint" />
            <mxPoint x="96.28203230275506" y="50.00152422706632" as="targetPoint" />
          </mxGeometry>
        </mxCell>
        <mxCell id="qedzuLV1WojchfPEjpT0-27" value="S-band RF&amp;nbsp;" style="edgeLabel;html=1;align=center;verticalAlign=middle;resizable=0;points=[];" parent="qedzuLV1WojchfPEjpT0-26" vertex="1" connectable="0">
          <mxGeometry x="-0.5622" y="-1" relative="1" as="geometry">
            <mxPoint as="offset" />
          </mxGeometry>
        </mxCell>
        <mxCell id="qedzuLV1WojchfPEjpT0-28" value="" style="endArrow=classic;html=1;rounded=0;entryX=0.5;entryY=0;entryDx=0;entryDy=0;fillColor=#d5e8d4;strokeColor=#82b366;strokeWidth=2;" parent="qedzuLV1WojchfPEjpT0-9" edge="1">
          <mxGeometry width="50" height="50" relative="1" as="geometry">
            <mxPoint x="252.0010161513776" y="160.0015242270663" as="sourcePoint" />
            <mxPoint x="160.64203230275507" y="160.0015242270663" as="targetPoint" />
          </mxGeometry>
        </mxCell>
        <mxCell id="qedzuLV1WojchfPEjpT0-29" value="X-band RF" style="edgeLabel;html=1;align=center;verticalAlign=middle;resizable=0;points=[];" parent="qedzuLV1WojchfPEjpT0-28" vertex="1" connectable="0">
          <mxGeometry x="-0.5622" y="-1" relative="1" as="geometry">
            <mxPoint as="offset" />
          </mxGeometry>
        </mxCell>
        <mxCell id="qedzuLV1WojchfPEjpT0-30" value="" style="endArrow=classic;html=1;rounded=0;entryX=0.5;entryY=0;entryDx=0;entryDy=0;fillColor=#d5e8d4;strokeColor=#82b366;strokeWidth=2;" parent="qedzuLV1WojchfPEjpT0-9" target="qedzuLV1WojchfPEjpT0-25" edge="1">
          <mxGeometry width="50" height="50" relative="1" as="geometry">
            <mxPoint x="369.0010161513776" y="260.00152422706634" as="sourcePoint" />
            <mxPoint x="277.64203230275507" y="260.00152422706634" as="targetPoint" />
          </mxGeometry>
        </mxCell>
        <mxCell id="qedzuLV1WojchfPEjpT0-31" value="X-band RF" style="edgeLabel;html=1;align=center;verticalAlign=middle;resizable=0;points=[];" parent="qedzuLV1WojchfPEjpT0-30" vertex="1" connectable="0">
          <mxGeometry x="-0.5622" y="-1" relative="1" as="geometry">
            <mxPoint as="offset" />
          </mxGeometry>
        </mxCell>
        <mxCell id="qedzuLV1WojchfPEjpT0-32" value="" style="endArrow=classic;html=1;rounded=0;entryX=0.5;entryY=0;entryDx=0;entryDy=0;fillColor=#d5e8d4;strokeColor=#82b366;strokeWidth=2;startArrow=none;startFill=0;edgeStyle=orthogonalEdgeStyle;" parent="qedzuLV1WojchfPEjpT0-9" edge="1">
          <mxGeometry width="50" height="50" relative="1" as="geometry">
            <mxPoint x="290.6410161513776" y="260.00152422706634" as="sourcePoint" />
            <mxPoint x="267.6410161513776" y="353.00152422706634" as="targetPoint" />
          </mxGeometry>
        </mxCell>
        <mxCell id="qedzuLV1WojchfPEjpT0-7" value="" style="shape=flexArrow;endArrow=classic;html=1;rounded=0;fillColor=#f8cecc;strokeColor=#b85450;endWidth=24;endSize=8;width=34;" parent="1" edge="1">
          <mxGeometry width="50" height="50" relative="1" as="geometry">
            <mxPoint x="70" y="520" as="sourcePoint" />
            <mxPoint x="970" y="520" as="targetPoint" />
          </mxGeometry>
        </mxCell>
        <mxCell id="cFxTWBbHIYw918FJkVRa-1" value="PLASMA #1" style="rounded=0;whiteSpace=wrap;html=1;fillColor=#f8cecc;strokeColor=#b85450;" parent="1" vertex="1">
          <mxGeometry x="373" y="490" width="230" height="60" as="geometry" />
        </mxCell>
        <mxCell id="cFxTWBbHIYw918FJkVRa-5" value="PLASMA #2" style="rounded=0;whiteSpace=wrap;html=1;fillColor=#f8cecc;strokeColor=#b85450;" parent="1" vertex="1">
          <mxGeometry x="670" y="489" width="220" height="60" as="geometry" />
        </mxCell>
        <mxCell id="qedzuLV1WojchfPEjpT0-6" value="" style="shape=flexArrow;endArrow=none;startArrow=none;html=1;rounded=0;exitX=1;exitY=0.5;exitDx=0;exitDy=0;fillColor=#dae8fc;strokeColor=#6c8ebf;startFill=0;endFill=0;" parent="1" source="qedzuLV1WojchfPEjpT0-1" edge="1">
          <mxGeometry width="100" height="100" relative="1" as="geometry">
            <mxPoint x="324" y="360" as="sourcePoint" />
            <mxPoint x="334" y="520" as="targetPoint" />
          </mxGeometry>
        </mxCell>
        <mxCell id="qedzuLV1WojchfPEjpT0-1" value="E-gun" style="rounded=0;whiteSpace=wrap;html=1;fillColor=#dae8fc;strokeColor=#6c8ebf;rotation=60;" parent="1" vertex="1">
          <mxGeometry x="44" y="70" width="120" height="80" as="geometry" />
        </mxCell>
        <mxCell id="qedzuLV1WojchfPEjpT0-3" value="ACC&#39;1" style="rounded=0;whiteSpace=wrap;html=1;fillColor=#dae8fc;strokeColor=#6c8ebf;rotation=60;" parent="1" vertex="1">
          <mxGeometry x="147.5" y="329.36" width="204" height="80" as="geometry" />
        </mxCell>
        <mxCell id="qedzuLV1WojchfPEjpT0-17" value="" style="endArrow=classic;html=1;rounded=0;entryX=0.5;entryY=0;entryDx=0;entryDy=0;fillColor=#d5e8d4;strokeColor=#82b366;strokeWidth=2;" parent="1" edge="1">
          <mxGeometry width="50" height="50" relative="1" as="geometry">
            <mxPoint x="227" y="90" as="sourcePoint" />
            <mxPoint x="135.64101615137747" y="90" as="targetPoint" />
          </mxGeometry>
        </mxCell>
        <mxCell id="qedzuLV1WojchfPEjpT0-18" value="S-band RF" style="edgeLabel;html=1;align=center;verticalAlign=middle;resizable=0;points=[];" parent="qedzuLV1WojchfPEjpT0-17" vertex="1" connectable="0">
          <mxGeometry x="-0.5622" y="-1" relative="1" as="geometry">
            <mxPoint as="offset" />
          </mxGeometry>
        </mxCell>
        <mxCell id="qedzuLV1WojchfPEjpT0-21" value="" style="endArrow=classic;html=1;rounded=0;entryX=0.5;entryY=0;entryDx=0;entryDy=0;fillColor=#d5e8d4;strokeColor=#82b366;strokeWidth=2;" parent="1" edge="1">
          <mxGeometry width="50" height="50" relative="1" as="geometry">
            <mxPoint x="370" y="299" as="sourcePoint" />
            <mxPoint x="260.0010161513775" y="299.3600000000001" as="targetPoint" />
            <Array as="points" />
          </mxGeometry>
        </mxCell>
        <mxCell id="qedzuLV1WojchfPEjpT0-22" value="S-band RF" style="edgeLabel;html=1;align=center;verticalAlign=middle;resizable=0;points=[];" parent="qedzuLV1WojchfPEjpT0-21" vertex="1" connectable="0">
          <mxGeometry x="-0.5622" y="-1" relative="1" as="geometry">
            <mxPoint x="-21" y="-10" as="offset" />
          </mxGeometry>
        </mxCell>
      </root>
    </mxGraphModel>
  </diagram>
</mxfile>
